# xmcd
#
# Track frame offsets: 
#        150
#        22901
#        44146
#        61290
#        74192
#        98078
#        112468
#        133239
#        154815
#        175918
#        193384
#        215144
#
# Disc length: 3026 seconds
#
# Revision: 2
# Processed by: cddbd v1.5.2PL0 Copyright (c) Steve Scherf et al.
# Submitted via: ExactAudioCopy v0.99pb4
#
DISCID=c80bd00c
DTITLE=Will Wilde - Unleashed
DYEAR=2010
DGENRE=Blues
TTITLE0=Angel Came Down
TTITLE1=Waste My Life Away
TTITLE2=No No No
TTITLE3=Always Be Around
TTITLE4=HLS
TTITLE5=Fly Around The World
TTITLE6=Wish You Were Mine
TTITLE7=If I Get My Hands On You
TTITLE8=Malaria
TTITLE9=Blues Is My First Love (Feat. Dani Wilde)
TTITLE10=Let's Get High
TTITLE11=No No No (Reprise)
EXTD=Will Wilde is a british blues harp player, songwriter and singer
EXTT0=
EXTT1=
EXTT2=
EXTT3=
EXTT4=
EXTT5=
EXTT6=
EXTT7=
EXTT8=
EXTT9=
EXTT10=
EXTT11=
PLAYORDER=
